<?xml version="1.0" encoding="UTF-8"?>
<svg id="Layer_1" data-name="Layer 1" xmlns="http://www.w3.org/2000/svg" xmlns:xlink="http://www.w3.org/1999/xlink" viewBox="0 0 1300 1000">
  <defs>
    <style>
      .cls-1 {
        fill: url(#linear-gradient-7);
        opacity: .65;
      }

      .cls-1, .cls-2, .cls-3, .cls-4, .cls-5, .cls-6, .cls-7, .cls-8, .cls-9, .cls-10, .cls-11, .cls-12 {
        stroke-width: 0px;
      }

      .cls-2 {
        fill: url(#linear-gradient);
      }

      .cls-2, .cls-3 {
        opacity: .2;
      }

      .cls-3 {
        fill: url(#linear-gradient-8);
      }

      .cls-4 {
        fill: none;
      }

      .cls-5 {
        fill: url(#linear-gradient-11);
      }

      .cls-5, .cls-11 {
        opacity: .4;
      }

      .cls-6 {
        fill: url(#linear-gradient-6);
        opacity: .6;
      }

      .cls-7 {
        fill: url(#linear-gradient-2);
        opacity: .3;
      }

      .cls-8 {
        fill: url(#linear-gradient-5);
        opacity: .55;
      }

      .cls-9 {
        fill: url(#linear-gradient-9);
        opacity: .27;
      }

      .cls-10 {
        fill: url(#linear-gradient-4);
        opacity: .5;
      }

      .cls-11 {
        fill: url(#linear-gradient-3);
      }

      .cls-12 {
        fill: url(#linear-gradient-10);
        opacity: .33;
      }
    </style>
    <linearGradient id="linear-gradient" x1="-3548.26" y1="3530.12" x2="-2401.42" y2="3530.12" gradientTransform="translate(2213.34 -3775.79) rotate(-23.39)" gradientUnits="userSpaceOnUse">
      <stop offset="0" stop-color="#4591d0"/>
      <stop offset="1" stop-color="#81b9e6"/>
    </linearGradient>
    <linearGradient id="linear-gradient-2" x1="-3464.51" y1="3547.61" x2="-2442.74" y2="3547.61" gradientTransform="translate(2213.34 -3775.79) rotate(-23.39)" gradientUnits="userSpaceOnUse">
      <stop offset="0" stop-color="#2377bb"/>
      <stop offset="1" stop-color="#4195da"/>
    </linearGradient>
    <linearGradient id="linear-gradient-3" x1="-3385.28" y1="3570.29" x2="-2481.56" y2="3570.29" xlink:href="#linear-gradient-2"/>
    <linearGradient id="linear-gradient-4" x1="-3309.49" y1="3600.72" x2="-2515.41" y2="3600.72" gradientTransform="translate(2213.34 -3775.79) rotate(-23.39)" gradientUnits="userSpaceOnUse">
      <stop offset="0" stop-color="#005ca6"/>
      <stop offset="1" stop-color="#0072ce"/>
    </linearGradient>
    <linearGradient id="linear-gradient-5" x1="-3158.56" y1="3597.86" x2="-2539.39" y2="3597.86" gradientTransform="translate(2213.34 -3775.79) rotate(-23.39)" gradientUnits="userSpaceOnUse">
      <stop offset="0" stop-color="#004788"/>
      <stop offset="1" stop-color="#005baf"/>
    </linearGradient>
    <linearGradient id="linear-gradient-6" x1="-3008.96" y1="3595.59" x2="-2563.33" y2="3595.59" gradientTransform="translate(2213.34 -3775.79) rotate(-23.39)" gradientUnits="userSpaceOnUse">
      <stop offset="0" stop-color="#00336b"/>
      <stop offset="1" stop-color="#004491"/>
    </linearGradient>
    <linearGradient id="linear-gradient-7" x1="-2861.31" y1="3579.82" x2="-2587.23" y2="3579.82" gradientTransform="translate(2213.34 -3775.79) rotate(-23.39)" gradientUnits="userSpaceOnUse">
      <stop offset="0" stop-color="#001e4d"/>
      <stop offset="1" stop-color="#002d72"/>
    </linearGradient>
    <linearGradient id="linear-gradient-8" x1="-1924.02" y1="1542.94" x2="620.26" y2="1542.94" gradientUnits="userSpaceOnUse">
      <stop offset="0" stop-color="#c2dcf2"/>
      <stop offset="1" stop-color="#91c6f2"/>
    </linearGradient>
    <linearGradient id="linear-gradient-9" x1="-1794.4" y1="1502.52" x2="455.61" y2="1502.52" gradientUnits="userSpaceOnUse">
      <stop offset="0" stop-color="#92bcdf"/>
      <stop offset="1" stop-color="#6db1e9"/>
      <stop offset="1" stop-color="#6db1e9"/>
    </linearGradient>
    <linearGradient id="linear-gradient-10" x1="-1692.02" y1="1462.92" x2="294.82" y2="1462.92" gradientUnits="userSpaceOnUse">
      <stop offset="0" stop-color="#619ccc"/>
      <stop offset="1" stop-color="#499ce0"/>
      <stop offset="1" stop-color="#499ce0"/>
    </linearGradient>
    <linearGradient id="linear-gradient-11" x1="-1613.02" y1="1423.82" x2="139.16" y2="1423.82" gradientUnits="userSpaceOnUse">
      <stop offset="0" stop-color="#317cb9"/>
      <stop offset="1" stop-color="#2487d7"/>
      <stop offset="1" stop-color="#2487d7"/>
    </linearGradient>
  </defs>
  <g>
    <rect class="cls-4" y="0" width="1300" height="1000"/>
    <path class="cls-2" d="m1259.53,151.04c-116.83-116.45-255.92,105.6-280.24,139.98-24.32,34.38-107.52,145.34-294.04-53.42-186.52-198.76-469.71-11.82-486.83,139.04-20.54,180.99,88.84,280.21,142.09,419.05,53.25,138.84,125.81,523.22,490.41,491.59,1039.99-90.23,545.44-1019.79,428.61-1136.24Zm-386.41,1049.76c-351.97,62.86-374.68-284.8-420.5-404.27-45.82-119.47-167.46-191.83-149.79-347.56,14.73-129.81,258.13-266.74,434.48-129.64,173.66,135.01,245,46.22,266.33,16.94,32.92-45.19,166.18-206.69,261.32-103.2,95.63,104.23,437.78,819.57-391.84,967.74Z"/>
    <path class="cls-7" d="m1264.96,233.06c-95.13-103.49-228.39,58.01-261.32,103.2-21.33,29.28-92.68,118.07-266.33-16.94-176.34-137.1-419.75-.17-434.48,129.64-17.67,155.74,103.97,228.09,149.79,347.56,45.82,119.47,68.52,467.13,420.5,404.27,829.62-148.17,487.46-863.51,391.84-967.74Zm-349.64,881.26c-339.48,100.79-312.19-216.85-350.58-316.95-38.39-100.1-172.29-145.59-157.49-276.08,12.34-108.77,215.13-195.18,382.12-120.24,159.97,71.78,220.46,4.78,238.62-19.54,41.72-55.87,168.95-156.96,242.39-66.42,74.42,92.01,265.38,615.03-355.07,799.24Z"/>
    <path class="cls-11" d="m1270.39,315.09c-73.44-90.54-200.67,10.56-242.39,66.42-18.16,24.32-78.65,91.33-238.62,19.54-166.99-74.93-369.78,11.48-382.12,120.24-14.81,130.48,119.1,175.97,157.49,276.08,38.39,100.1,11.1,417.74,350.58,316.95,620.45-184.21,429.49-707.22,355.07-799.24Zm-312.87,712.76c-321.46,152.67-249.7-148.9-280.66-229.63-30.96-80.73-177.12-99.35-165.18-204.59,9.95-87.72,171.66-121.89,329.76-110.85,145.84,10.18,196.01-36.6,210.91-56.03,50.84-66.3,171.72-107.23,223.46-29.65,53.21,79.8,101.28,431.47-318.29,630.74Z"/>
    <path class="cls-10" d="m1275.81,397.11c-51.74-77.58-172.62-36.65-223.46,29.65-14.9,19.43-65.08,66.21-210.91,56.03-158.1-11.04-319.81,23.13-329.76,110.85-11.94,105.23,134.22,123.86,165.18,204.59,30.96,80.73-40.8,382.3,280.66,229.63,419.57-199.27,371.51-550.94,318.29-630.74Zm-270.21,531.69c-223.1,97.25-158.58-119.62-185.25-189.18s-158.95-72.05-153.28-152.44c4.67-67.29,130.44-88.18,246.06-85.17,111.6,2.9,150.88-35.56,163.57-54.68,38.35-57.79,138.52-94.01,183.15-26.58,64.72,98.48,33.57,382.59-254.26,508.06Z"/>
    <path class="cls-8" d="m1259.86,420.74c-44.64-67.43-144.8-31.21-183.15,26.58-12.69,19.12-51.98,57.58-163.57,54.68-115.62-3-241.39,17.89-246.06,85.17-5.68,80.4,126.6,82.88,153.28,152.44s-37.85,286.42,185.25,189.18c287.83-125.46,318.98-409.57,254.26-508.06Zm-206.18,409.01c-125.22,41.8-67.45-90.33-89.85-148.72-22.39-58.39-140.78-44.74-141.37-100.3-.61-46.85,89.35-55,162.36-59.49,77.5-4.77,105.92-34.38,116.23-53.34,26.51-48.75,105.31-80.8,142.85-23.52,76.23,117.17-34.7,333.46-190.23,385.37Z"/>
    <path class="cls-6" d="m1243.91,444.37c-37.54-57.28-116.34-25.23-142.85,23.52-10.31,18.97-38.73,48.57-116.23,53.34-73.02,4.49-162.97,12.64-162.36,59.49.59,55.56,118.97,41.91,141.37,100.3,22.39,58.39-35.37,190.52,89.85,148.72,155.53-51.92,266.46-268.21,190.23-385.37Zm-142.15,286.32c-29.04-19.79,23.67-61.05,5.56-108.27s-122.61-17.43-129.46-48.15c-5.89-26.42,48.08-23.6,78.66-33.82,43.18-14.42,61.35-33.01,68.89-52,15.59-39.28,72.11-67.58,102.54-20.46,87.74,135.85-105.35,276.89-126.19,262.69Z"/>
    <path class="cls-1" d="m1227.96,468.01c-30.43-47.12-86.95-18.83-102.54,20.46-7.54,18.99-25.71,37.58-68.89,52-30.58,10.21-84.55,7.4-78.66,33.82,6.85,30.72,111.35.93,129.46,48.15s-34.6,88.48-5.56,108.27c20.84,14.2,213.93-126.84,126.19-262.69Z"/>
  </g>
  <g>
    <path class="cls-3" d="m-895.54,857.54c-690.6,68.94-896.82,544.13-994.71,919.6-114.23,438.14,74.16,558.93,372.28,261.24,679.15-678.16,853.15,710.65,1946.83-28.82C1101.1,1555.04-155.99,783.71-895.54,857.54ZM249.89,1950.08c-953.62,595.45-1070.24-531.58-1635.57-60.82-248.01,206.52-442.55,155.6-403.79-185.56,33.23-292.36,228.99-737.86,863.53-819.01C-199.57,791.8,919.96,1531.69,249.89,1950.08Z"/>
    <path class="cls-9" d="m-925.93,884.7c-634.54,81.15-830.3,526.65-863.53,819.01-38.77,341.16,155.78,392.08,403.79,185.56,565.33-470.76,681.95,656.27,1635.57,60.82C919.96,1531.69-199.57,791.8-925.93,884.7ZM70.93,1890.61c-806.43,456.84-880.56-409.86-1324.31-150.45-202.06,118.13-398.59,134.3-435.29-109.89-31.43-209.25,154-626.51,732.35-718.42C-242.99,798.49,742.32,1510.27,70.93,1890.61Z"/>
    <path class="cls-12" d="m-956.32,911.86c-578.35,91.91-763.78,509.16-732.35,718.42,36.69,244.19,233.22,228.01,435.29,109.89,443.75-259.42,517.88,607.29,1324.31,150.45C742.32,1510.27-242.99,798.49-956.32,911.86ZM-108.04,1831.13c-652.52,325.04-719.37-293.37-1013.05-240.08-170.23,30.88-354.63,113-466.79-34.21-96.09-126.14,78.93-516.66,601.17-617.82C-286.5,803.38,569.51,1493.63-108.04,1831.13Z"/>
    <path class="cls-5" d="m-986.71,939.02c-522.24,101.16-697.26,491.68-601.17,617.82,112.16,147.21,296.56,65.1,466.79,34.21,293.68-53.28,360.53,565.12,1013.05,240.08,677.55-337.51-178.46-1027.75-878.67-892.12Zm699.7,832.64c-493.99,202.04-548.45-224.07-701.79-329.72-127.58-87.91-310.67,91.7-498.29,41.46-160.74-43.04,3.47-408.33,469.99-517.23,686.52-160.26,1420.75,523,730.09,805.48Z"/>
  </g>
</svg>